{"title":"One Direction - You &amp; I (2014) 720p x264 AAC E-Subs [GWC].mp","uid":9991117,"size":57864435,"categoryP":"video","categoryS":"music_videos","magnet":"?xt=urn:btih:cc80f1910ea993155e3d5cb99bad0d9e9aa24dd5&amp;dn=One+Direction+-+You+%26amp%3B+I+%282014%29+720p+x264+AAC+E-Subs+%5BGWC%5D.mp&amp;tr=udp%3A%2F%2Ftracker.openbittorrent.com%3A80&amp;tr=udp%3A%2F%2Fopen.demonii.com%3A1337&amp;tr=udp%3A%2F%2Ftracker.coppersurfer.tk%3A6969&amp;tr=udp%3A%2F%2Fexodus.desync.com%3A6969","seeders":13,"leechers":1,"uploader":"canc232","files":1,"time":1397850430,"description":"One Direction - You &amp; I (2014) 720p x264 AAC E-Subs [GWC] \n\n\nCOVER : &lt;a href=&quot;\nhttp://i.imgur.com/mlOLMcI.jpg&quot; rel=&quot;nofollow&quot; target=&quot;_NEW&quot;&gt;\nhttp://i.imgur.com/mlOLMcI.jpg&lt;/a&gt;\n\n\nTHUMBNAIL IMAGE : &lt;a href=&quot;\nhttp://img835.imageshack.us/img835/2456/8c71.jpg&quot; rel=&quot;nofollow&quot; target=&quot;_NEW&quot;&gt;\nhttp://img835.imageshack.us/img835/2456/8c71.jpg&lt;/a&gt;\n\n\nMEDIA INFO :\nGeneral \nFormat : MPEG-4 \nFormat profile : Base Media \nFile size : 55.2 MiB \nDuration : 4mn 4s \nOverall bit rate mode : Variable \nOverall bit rate : 1 894 Kbps \n\nVideo \nFormat : AVC \nFormat profile : &lt;a class=&quot;__cf_email__&quot; href=&quot;/cdn-cgi/l/email-protection&quot; data-cfemail=&quot;d69bb7bfb8969ae5f8e7&quot;&gt;[email&amp;#160;protected]&lt;/a&gt;&lt;script cf-hash='f9e31' type=&quot;text/javascript&quot;&gt;\n/* &lt;![CDATA[ */!function(){try{var t=&quot;currentScript&quot;in document?document.currentScript:function(){for(var t=document.getElementsByTagName(&quot;script&quot;),e=t.length;e--;)if(t[e].getAttribute(&quot;cf-hash&quot;))return t[e]}();if(t&amp;&amp;t.previousSibling){var e,r,n,i,c=t.previousSibling,a=c.getAttribute(&quot;data-cfemail&quot;);if(a){for(e=&quot;&quot;,r=parseInt(a.substr(0,2),16),n=2;a.length-n;n+=2)i=parseInt(a.substr(n,2),16)^r,e+=String.fromCharCode(i);e=document.createTextNode(e),c.parentNode.replaceChild(e,c)}}}catch(u){}}();/* ]]&gt; */&lt;/script&gt; \nFormat settings, CABAC : Yes \nFormat settings, ReFrames : 3 frames \nDuration : 4mn 4s \nBit rate : 1 805 Kbps \nMaximum bit rate : 3 199 Kbps \nWidth : 1 280 pixels \nHeight : 720 pixels \nDisplay aspect ratio : 16:9 \nFrame rate : 25.000 fps \nStream size : 52.6 MiB (95%) \nTitle : One Direction - You &amp; I (2014) 720p x264 AAC E-Subs [GWC] \n\nAudio \nFormat : AAC \nFormat profile : LC \nDuration : 4mn 4s \nBit rate mode : Variable \nChannel(s) : 2 channels \nSampling rate : 48.0 KHz \nStream size : 2.47 MiB (4%) \nLanguage : English \n\nText \nFormat : Timed Text \nTitle : English Subtitle by [GWC] \nLanguage : English ","torrent":{"xt":"urn:btih:cc80f1910ea993155e3d5cb99bad0d9e9aa24dd5","amp;dn":"One+Direction+-+You+%26amp%3B+I+%282014%29+720p+x264+AAC+E-Subs+%5BGWC%5D.mp","amp;tr":["udp%3A%2F%2Ftracker.openbittorrent.com%3A80","udp%3A%2F%2Fopen.demonii.com%3A1337","udp%3A%2F%2Ftracker.coppersurfer.tk%3A6969","udp%3A%2F%2Fexodus.desync.com%3A6969"],"infoHash":"cc80f1910ea993155e3d5cb99bad0d9e9aa24dd5","infoHashBuffer":{"type":"Buffer","data":[204,128,241,145,14,169,147,21,94,61,92,185,155,173,13,158,154,162,77,213]},"announce":[],"urlList":[]}}